<svg xmlns="http://www.w3.org/2000/svg" width="95" height="95" viewBox="0 0 95 95">
  <g id="Group_8491" data-name="Group 8491" transform="translate(-1172 -3433)">
    <path id="Path_55649" data-name="Path 55649" d="M19.894,0H61.672A19.894,19.894,0,0,1,81.566,19.894V61.672A19.894,19.894,0,0,1,61.672,81.566H19.894A19.894,19.894,0,0,1,0,61.672V19.894A19.894,19.894,0,0,1,19.894,0Z" transform="translate(1172 3446.434)" fill="#7f66d8"/>
    <rect id="Rectangle_1363" data-name="Rectangle 1363" width="65" height="65" rx="10" transform="translate(1202 3433)" fill="#5d3689" opacity="0.16"/>
    <g id="Group_8485" data-name="Group 8485" transform="translate(1192.613 3470.217)">
      <path id="Path_55663" data-name="Path 55663" d="M40.133,29.84l-5.686-5.674a3.785,3.785,0,0,0-6.3,1.419,3.871,3.871,0,0,1-4.468,2.432C19.622,27,14.139,21.734,13.124,17.479a3.672,3.672,0,0,1,2.437-4.458,3.771,3.771,0,0,0,1.422-6.282L11.3,1.064a4.062,4.062,0,0,0-5.483,0L1.954,4.914c-3.858,4.053.406,14.793,9.951,24.318s20.308,13.983,24.369,9.93l3.858-3.85A4.041,4.041,0,0,0,40.133,29.84Z" transform="translate(-0.539 0)" fill="#fff"/>
    </g>
  </g>
</svg>
